<?xml version="1.0" encoding="utf-8"?>
<!-- Svg Vector Icons : http://www.onlinewebfonts.com/icon -->
<!DOCTYPE svg PUBLIC "-//W3C//DTD SVG 1.1//EN" "http://www.w3.org/Graphics/SVG/1.1/DTD/svg11.dtd">
<svg version="1.1" xmlns="http://www.w3.org/2000/svg" xmlns:xlink="http://www.w3.org/1999/xlink" x="0px" y="0px" viewBox="0 0 1000 1000" enable-background="new 0 0 1000 1000" xml:space="preserve">
<metadata> Svg Vector Icons : http://www.onlinewebfonts.com/icon </metadata>
<g><g transform="translate(0.000000,512.000000) scale(0.100000,-0.100000)"><path d="M681.5,5008.5c-157.1-38.3-264.3-147.5-329.4-333.2c-47.9-139.8-47.9-519,0-658.8c80.4-227.9,206.9-327.5,446.2-344.7l141.7-11.5V-558.9V-4780h4050.6h4050.6v4221.1v4219.2l149.4,11.5c245.1,15.3,362,97.7,446.2,314.1c57.5,149.4,63.2,536.3,11.5,689.5c-47.9,136-132.2,245.1-227.9,296.9l-82.3,44l-4299.6,3.8C2673.3,5020,714.1,5016.2,681.5,5008.5z M9303.7,4600.6c23-47.9,32.6-111.1,32.6-254.7c0-239.4-28.7-306.4-136-323.7c-97.7-13.4-8133.8-13.4-8323.4,0c-141.7,11.5-149.4,13.4-180,72.8c-46,86.2-44,417.5,0,505.6l34.5,61.3h4268.9h4269L9303.7,4600.6z M8696.5,1281.6v-2384.4H4990.7H1284.8v2384.4V3666h3705.9h3705.9V1281.6z M4827.9-1886.2v-440.5l-105.3-47.9c-149.4-67-298.8-216.4-365.8-362c-46-99.6-53.6-143.7-55.5-281.5c0-143.7,7.7-178.1,61.3-291.1c74.7-157.1,189.6-272,350.5-348.6c109.2-51.7,145.6-59.4,287.3-59.4c141.7,0,178.1,7.7,287.3,59.4c159,74.7,277.7,193.5,352.4,352.4c51.7,109.2,59.4,145.5,59.4,287.3c-1.9,137.9-9.6,182-55.5,281.5c-67,145.5-216.4,294.9-365.8,362l-105.3,47.9v440.5v438.6h1762h1762v-1484.3v-1484.3H4990.7H1284.8v1484.3v1484.3h1771.6h1771.5V-1886.2z M5178.3-2719.3c224.1-120.6,222.2-475-1.9-601.3c-164.7-91.9-383-36.4-476.9,126.4c-120.7,204.9-5.7,467.3,231.7,520.9C5009.8-2656.1,5090.3-2669.5,5178.3-2719.3z"/></g></g>
</svg>